<?xml version="1.0" encoding="UTF-8"?>
<svg width="18px" height="18px" viewBox="0 0 18 18" version="1.1" xmlns="http://www.w3.org/2000/svg" xmlns:xlink="http://www.w3.org/1999/xlink">
    <!-- Generator: Sketch 61 (89581) - https://sketch.com -->
    <title>insert</title>
    <desc>Created with Sketch.</desc>
    <g id="Page-1" stroke="none" stroke-width="1" fill="none" fill-rule="evenodd">
        <g id="Sample-Page-(1)" transform="translate(-597.000000, -498.000000)" fill-rule="nonzero">
            <g id="Group-4" transform="translate(255.000000, 481.500000)">
                <g id="Group-2">
                    <g id="insert" transform="translate(341.000000, 15.500000)">
                        <path d="M10,1 C5,1 1,5 1,10 C1,15 5,19 10,19 C15,19 19,15 19,10 C19,5 15,1 10,1 Z M10,17 C6.1,17 3,13.9 3,10 C3,6.1 6.1,3 10,3 C13.9,3 17,6.1 17,10 C17,13.9 13.9,17 10,17 Z M11,6 L9,6 L9,9 L6,9 L6,11 L9,11 L9,14 L11,14 L11,11 L14,11 L14,9 L11,9 L11,6 Z" id="Shape" fill="#00B295"></path>
                        <rect id="Rectangle" fill-opacity="0" fill="#000000" x="0" y="0" width="20" height="20"></rect>
                    </g>
                </g>
            </g>
        </g>
    </g>
</svg>