<svg width="4873" height="1000" viewBox="0 0 4873 1000" version="1.1" xmlns="http://www.w3.org/2000/svg"><title>WH Core Brandmark YWh RGB</title><g id="Page-1" stroke="none" stroke-width="1" fill="none" fill-rule="evenodd"><g id="WH-Core-Brandmark-YWh-RGB" fill-rule="nonzero"><path d="M1870 859.66c39.92 0 82.43-22.23 148.72-94.24-17.63 57.71 3.15 94.24 50.84 94.24 53.43 0 98.09-56.36 145.9-114.73L2416.11 500c43.44-53 75.44-85.51 110.12-85.51 32.43 0 26.66 39-17.3 94.36-38.21 48.1-274 343.91-274 343.91h99.23l243-315.54c72.8-94.8 122.71-122.73 149.93-122.73 14.31 0 17.64 10.48 17.64 21.24 0 29.37-22.08 55.18-89.53 139.71l-221.3 277.32h97.1l241.91-314.11c91.19-118.41 121.94-124.16 141.95-124.16 13.9 0 17.56 10.8 17.56 20.68 0 71.94-202.1 218.91-202.1 352 0 39.4 29.69 73.13 85.58 73.13 156 0 317.53-338.94 317.53-520.82 0-152.27-89-227.05-191.68-227.05-147.25 0-200.63 81.3-200.63 140.79 0 51.61 27.12 79 77.07 79 70.25 0 119-80.25 119-103.42 0-3.81-1.44-4.53-3.74-5.61-26.8 63.39-70.54 84.23-104.86 84.23-38.34 0-58.53-21-58.53-58.31 0-42 45.19-117.26 162.52-117.26 108.53 0 172.79 69.51 172.79 207.62 0 239.59-160.13 490.56-277.8 490.56-27.5 0-35.27-14.57-35.27-30.17 0-39.6 62.32-99 114.71-178.34 41.31-62.56 82.71-123.2 82.71-177.69 0-46.33-20.31-65.88-54.05-65.88-35.27 0-75.71 25.19-144.27 99.42 11.89-44.66 16.25-99.42-40.82-99.42-30 0-82.22 21.24-157.29 106.9 21.85-68.76 1.8-106.9-45-106.9s-78.57 33.91-114.46 77.72l-177.48 216.76c-65.37 79.81-125.13 164.85-163.6 164.85-24.87 0-35.87-39 5.87-91.45l287-360.93h-105.83l-23.16 31.72c-4.52-24.48-23.56-36.41-46.33-36.41-76 0-170.77 54.42-241.12 124.76-58.94 58.94-110.49 144.55-136.08 210.41-37.25 48.5-99.8 121.9-145.4 121.9-31.09 0-37.87-39 3.87-91.45l287-360.93h-105.83s-120.08 164.47-199 272.22v-.05c-21 27.42-86.59 110.81-106.94 131.15-33.42 33.42-61.88 49.06-82.16 49.06-31.09 0-37.87-39 3.87-91.45 37.18-46.76 449.94-566.52 449.94-566.52h-104.08s-265.83 349.82-363 477.76c-21 27.42-86.59 110.81-106.94 131.15-33.42 33.42-61.88 49.06-82.16 49.06-31.09 0-37.87-39 3.87-91.45 37.18-46.76 449.94-566.52 449.94-566.52h-104.14s-298.31 392.56-378.45 498.07l-.45.6-.29.39-1.46 2c-.9 1.21-1.79 2.41-2.67 3.61-26.43 36-111.2 153.34-168.87 153.34-31.09 0-37.87-39 3.87-91.45l287-360.93h-105.83S1128 572.18 1050.52 678c-77.48 105.82-44.65 181.68 24.07 181.68 60.71 0 100.69-46.61 133.06-84.56-6.9 51.75 22.49 84.56 67.27 84.56 60.66 0 102.61-46.53 135.14-84.46-6.85 51.69 22.53 84.46 67.29 84.46 62.2 0 104.73-48.92 137.61-87.34-8 53.7 21.83 87.34 67.58 87.34 52.33 0 102.06-48.75 135.24-87.13-3.45 40.19 5.65 87.11 52.22 87.11zm202.92-370.46c65.85-65.85 104.4-74.71 118.24-74.71 13.84 0 20.45 8.28 20.45 25.46 0 52.95-179.35 279.33-224.12 324.1-22.43 22.43-66 61.33-101.91 61.33-71.51-.01 59.37-208.21 187.34-336.18zM1493 230.69c10.72-30.5-3.72-55.22-32.26-55.22s-60.37 24.72-71.09 55.22c-10.72 30.5 3.72 55.22 32.26 55.22s60.36-24.72 71.09-55.22zm536.86 55.22c28.54 0 60.37-24.72 71.09-55.22 10.72-30.5-3.72-55.22-32.26-55.22s-60.37 24.72-71.09 55.22c-10.72 30.5 3.71 55.22 32.25 55.22h.01zM467.68 973.86c-188.38 0-299.52-114.58-326.2-268.51a120.88 120.88 0 0 0 29.86 4.11c23.59 0 57.6-4.64 94.5-22.87 16.28 12.72 36.73 20.09 61.71 20.09 195.67 0 340-367.12 216.56-470.1 103.43-47.47 212.79-63.67 290-19.18a490.3 490.3 0 0 0-56.36 47.6C629.33 413.41 560.06 716 447.58 837.47c-12.17-4-25.46-7.71-41.64-7.71-22.37 0-42.79 10.52-45.62 23.5-2.83 12.98 13 23.5 35.38 23.5 16.8 0 33.93-4 56.18-17.3a322.91 322.91 0 0 0 36.21 2.13c45.5 0 88.43-19.57 138.18-69.32 130-130 242.29-404.26 318.53-456.9C873.15 456.09 796.55 728 692.29 838.86c-11.69-4.71-24.26-9.11-40.35-9.11-22.37 0-42.79 10.52-45.62 23.5-2.83 12.98 13 23.5 35.38 23.5 17.33 0 35-4.22 58.33-18.61 12.46 3.38 27.28 6.19 42.21 6.19 37.66 0 83-21.21 121-59.2 137.75-137.75 311.67-421.33 459.16-568.82 53.65-53.65 149.42-127.51 277.15-127.51 115.29 0 191.81 70.51 191.81 70.51 2.72-2.72 1.66-7.37-4.59-13.62-62.5-62.5-137.65-89.1-205.65-89.1s-182.44 23.57-321.13 162.27C1112 386.79 944.13 683.23 833.89 793.47c-46.25 46.25-76.32 56.66-100.65 56.66a64.82 64.82 0 0 1-17.61-2.55c18.22-13.33 39.78-32.31 66.49-59 180.76-180.76 221.68-512.61 322.4-613.33-7-7-56.21 4.31-142.88 91-139.34 139.3-218.57 383.12-355.9 520.45-43 43-88 60.83-116.3 60.83a71.25 71.25 0 0 1-16.81-2.17c17.58-13.2 38.23-31.54 63.49-56.81 101.41-101.41 209.79-407.39 328-557.23 132.27-6.09 130.33-69.11 87.85-69.11-23.9 0-58.4 15.94-92.34 37.67-33.35-29.29-89.75-50.79-167.68-50.79-82.61 0-161.55 23.29-230.58 60.9-151.25 0-360.17 159.93-360.17 430.26 0 7.607.2 15.107.6 22.5-36.38-24.15-68.68-68.37-68.68-143.28 0-217 330.78-481.2 720.93-481.2 155.85 0 314.6 51.76 413.17 123.27l5.61-6.54C1112.17 94.33 964.3 0 708.14 0 371.25 0 0 197.83 0 518.38c0 86.94 51.57 144.89 104.26 172.45C128 884.48 287.36 999.3 450.1 999.3h4422.07v-25.44H467.68zm52-725.46c132.66 83.73-15.49 436.09-182.77 436.09-18.66 0-33.72-4.59-45.77-12.41 54.77-35.93 112.06-104.57 149-233.09l-7.57-2.73C404.92 520.64 346 610.9 274.26 656.89c-20.1-24.37-26.81-61.24-26.81-95.52 0-106.37 127.11-238.83 272.26-312.97h-.03zM135.17 630.3c0-169.83 147-373.25 287.82-397.25-123.76 81.42-207.25 208.61-207.25 319.9 0 46.26 10.74 89 33.92 117.66-22.87 10.88-46.75 17.06-71.13 17.06-11.21 0-25.44-2.16-40.59-7.25a451 451 0 0 1-2.77-50.12z" id="Shape" fill="#FAFF05"/><path id="Rectangle-path" fill="#FFF" d="M3810.86 125.1h211.05v738.02h-211.05z"/><path id="Shape" fill="#FFF" d="M4511.97 863.12h360.2V635.34H4727V125.1h-215.03zM4099.82 863.12h360.2V635.34h-145.16V125.1h-215.04zM3521.89 125.1v259.77h-103.96V125.1h-211.05v738.02h211.05V570.86h103.96v292.26h211.05V125.1z"/></g></g></svg>