<svg xmlns="http://www.w3.org/2000/svg" xmlns:xlink="http://www.w3.org/1999/xlink" viewBox="0 0 190.00005 65.24"><defs><style>.a,.b{fill:none;}.b{clip-rule:evenodd;}.c{clip-path:url(#a);}.d{fill:#f2ea17;}.e{clip-path:url(#b);}.f{fill:#fff;}.g{clip-path:url(#c);}.h{clip-path:url(#d);}.i{clip-path:url(#e);}.j{clip-path:url(#f);}</style><clipPath id="a" transform="translate(-0.58904 -4.47109)"><path class="a" d="M10.58283,32.79147c0-6.28352,5.43085-13.80983,10.63337-14.6978-4.57225,3.01246-7.65675,7.71833-7.65675,11.836a6.98073,6.98073,0,0,0,1.25316,4.35327,6.095,6.095,0,0,1-2.62786.63121,4.836,4.836,0,0,1-1.49958-.26824A16.71072,16.71072,0,0,1,10.58283,32.79147ZM24.78837,18.66161c4.90106,3.09792-.57227,16.13483-6.75235,16.13483a3.03265,3.03265,0,0,1-1.691-.45916c2.02345-1.32936,4.14-3.869,5.50473-8.62406l-.27967-.101a16.02444,16.02444,0,0,1-5.84868,8.16306,5.664,5.664,0,0,1-.99049-3.53412c0-3.93557,4.696-8.83644,10.05852-11.57954ZM22.86725,45.5028c-6.9596,0-11.06562-4.23932-12.0513-9.93456a4.46005,4.46005,0,0,0,1.10317.15207,7.93447,7.93447,0,0,0,3.49125-.84616,3.598,3.598,0,0,0,2.27985.7433c7.22893,0,12.56114-13.583,8.0007-17.39318,3.82118-1.75632,7.86143-2.35572,10.71392-.70964a18.1222,18.1222,0,0,0-2.0822,1.76115c-5.4833,5.491-8.04245,16.6865-12.198,21.18076a4.74676,4.74676,0,0,0-1.53837-.28527c-.82645,0-1.58086.38923-1.68541.86948s.48028.86947,1.3071.86947a3.85419,3.85419,0,0,0,2.07554-.64009,11.9087,11.9087,0,0,0,1.33776.07881c1.681,0,3.267-.72407,5.105-2.56475C33.52907,33.97433,37.67758,23.827,40.49423,21.8794c-2.64708,4.46651-5.477,14.52687-9.32887,18.62855a3.80884,3.80884,0,0,0-1.49071-.337c-.82645,0-1.58085.38923-1.68541.86948s.48028.86947,1.3071.86947a3.90545,3.90545,0,0,0,2.155-.68856,6.063,6.063,0,0,0,1.55943.229A6.75369,6.75369,0,0,0,37.481,39.26c5.08911-5.09659,11.5145-15.58874,16.96345-21.04571,1.98207-1.985,5.52025-4.71772,10.23917-4.71772A11.25731,11.25731,0,0,1,71.77,16.10535c.10049-.10063.06133-.27267-.16957-.50392a10.75272,10.75272,0,0,0-7.59764-3.2966c-2.51223,0-6.74016.87207-11.864,6.00381-5.46742,5.47324-11.6693,16.44119-15.74206,20.51995-1.70869,1.71118-2.81961,2.09634-3.71847,2.09634a2.39193,2.39193,0,0,1-.65059-.09434,22.00188,22.00188,0,0,0,2.45644-2.18293c6.67809-6.68792,8.18986-18.966,11.91092-22.69252-.25862-.259-2.07666.15947-5.27864,3.36689-5.14785,5.15395-8.075,14.175-13.14855,19.25607a6.7678,6.7678,0,0,1-4.29665,2.25064,2.62938,2.62938,0,0,1-.621-.08028,22.7759,22.7759,0,0,0,2.34561-2.10191c3.74654-3.752,7.75059-15.073,12.1178-20.61689,4.88665-.22532,4.815-2.557,3.24558-2.557a7.48217,7.48217,0,0,0-3.41146,1.39373,9.31908,9.31908,0,0,0-6.19486-1.87917,17.83831,17.83831,0,0,0-8.51867,2.25324c-5.58785,0-13.3063,5.91722-13.3063,15.91914q0,.42216.02216.83247a5.97,5.97,0,0,1-2.53735-5.30121c0-8.02874,12.22051-17.80384,26.63442-17.80384a27.43212,27.43212,0,0,1,15.26437,4.56084l.20726-.242c-2.24106-2.24472-7.704-5.73482-17.16775-5.73482-12.44625,0-26.1619,7.31948-26.1619,19.17948A7.08992,7.08992,0,0,0,9.44088,35.031a12.7919,12.7919,0,0,0,12.77689,11.413H185.589V45.5028Zm57.714-25.45336a3.08926,3.08926,0,0,0,2.62639-2.04308c.396-1.12848-.13744-2.04308-1.19183-2.04308a3.08923,3.08923,0,0,0-2.62639,2.04308c-.396,1.12846.13706,2.04308,1.19146,2.04308Zm-19.834-2.04308c.396-1.12848-.13743-2.04308-1.19183-2.04308A3.08921,3.08921,0,0,0,56.929,18.00636c-.39605,1.12846.13743,2.04308,1.19183,2.04308A3.08969,3.08969,0,0,0,60.74721,18.00636Zm21.42487,9.56457c2.4328-2.43637,3.857-2.76419,4.36832-2.76419s.75552.30635.75552.942c0,1.9591-6.626,10.33491-8.28,11.99134-.82866.82988-2.43834,2.26914-3.765,2.26914C72.609,40.00884,77.44429,32.30568,82.17208,27.57093ZM74.6753,41.27754c1.47482,0,3.04534-.82248,5.49439-3.48678-.65133,2.1352.11637,3.48678,1.87826,3.48678,1.97394,0,3.62389-2.08527,5.3902-4.24489l7.41292-9.06213c1.60487-1.96093,2.7871-3.16378,4.06833-3.16378,1.19811,0,.98495,1.443-.63914,3.49123-1.41165,1.77964-10.1228,12.72428-10.1228,12.72428h3.666L100.801,29.34761c2.68956-3.50748,4.53346-4.54087,5.53905-4.54087.5287,0,.6517.38776.6517.78587,0,1.08665-.8157,2.0416-3.3076,5.16911L95.50832,41.02225h3.58731l8.93721-11.62173c3.369-4.381,4.5051-4.59378,5.2443-4.59378.5135,0,.6488.39959.6488.76514,0,2.66171-7.4665,8.09943-7.4665,13.0236,0,1.45777,1.0969,2.70573,3.1617,2.70573,5.7633,0,11.731-12.54039,11.731-19.26975,0-5.63382-3.2881-8.4006-7.0815-8.4006-5.4401,0-7.4122,3.008-7.4122,5.20908a2.58842,2.58842,0,0,0,2.8473,2.92292c2.5953,0,4.3964-2.96917,4.3964-3.82644a.18582.18582,0,0,0-.1382-.20756c-.9901,2.34537-2.6061,3.11642-3.874,3.11642a1.94341,1.94341,0,0,1-2.1624-2.15741c0-1.55394,1.6696-4.33849,6.0043-4.33849,4.0096,0,6.3836,2.57179,6.3836,7.68171,0,8.86456-5.9159,18.15017-10.2632,18.15017-1.0159,0-1.303-.53907-1.303-1.11626,0-1.46516,2.3024-3.66288,4.2379-6.59837,1.5262-2.31466,3.0557-4.55827,3.0557-6.57433,0-1.71416-.7504-2.4375-1.9969-2.4375-1.303,0-2.797.932-5.33,3.67844.4393-1.65237.6004-3.67844-1.508-3.67844-1.1084,0-3.03761.78587-5.811,3.95519.80724-2.54405.0665-3.95519-1.6625-3.95519s-2.90273,1.25465-4.22867,2.87556l-6.55691,8.01988c-2.41507,2.95287-4.62287,6.09927-6.04413,6.09927-.91881,0-1.3252-1.443.21687-3.38356L93.72463,23.712H89.8148l-.85564,1.1736a1.61264,1.61264,0,0,0-1.71164-1.34713c-2.80778,0-6.309,2.01347-8.90806,4.616a24.57313,24.57313,0,0,0-5.02741,7.78494c-1.37619,1.79444-3.68707,4.51017-5.37174,4.51017-1.1486,0-1.39909-1.443.143-3.38356L78.68637,23.712H74.77653s-4.4363,6.08519-7.352,10.07183v-.00185c-.77584,1.0145-3.199,4.09984-3.95085,4.8524-1.23469,1.23649-2.28613,1.81517-3.03536,1.81517-1.14861,0-1.39909-1.443.143-3.38356,1.3736-1.73007,16.62282-20.9606,16.62282-20.9606H73.359S63.538,29.04829,59.9481,33.78194c-.77583,1.0145-3.199,4.09984-3.95084,4.8524-1.23469,1.23649-2.28613,1.81517-3.03537,1.81517-1.1486,0-1.39908-1.443.143-3.38356,1.3736-1.73007,16.62282-20.9606,16.62282-20.9606h-3.8474s-11.02092,14.52429-13.98166,18.428l-.01662.0222-.01072.01443-.05394.074q-.04987.06714-.09864.13357c-.97644,1.332-4.10823,5.67341-6.23882,5.67341-1.14861,0-1.39909-1.443.143-3.38356l10.60308-13.354H52.3161S47.26246,30.64109,44.4,34.55632s-1.64957,6.722.88926,6.722c2.2429,0,3.71994-1.72452,4.91583-3.12863-.25491,1.91469.83089,3.12863,2.48526,3.12863,2.24106,0,3.79088-1.72156,4.99269-3.12492-.25307,1.91247.83236,3.12492,2.486,3.12492,2.298,0,3.8692-1.81,5.08394-3.23148-.29556,1.98683.8065,3.23148,2.49671,3.23148,1.93331,0,3.77056-1.80369,4.99638-3.22371C72.6186,39.54154,72.95479,41.27754,74.6753,41.27754Z"/></clipPath><clipPath id="b" transform="translate(-0.58904 -4.47109)"><rect class="a" x="146.67014" y="14.33595" width="7.7838" height="27.24325"/></clipPath><clipPath id="c" transform="translate(-0.58904 -4.47109)"><polygon class="a" points="172.94 41.579 185.589 41.579 185.589 33.171 180.491 33.171 180.491 14.336 172.94 14.336 172.94 41.579"/></clipPath><clipPath id="d" transform="translate(-0.58904 -4.47109)"><polygon class="a" points="156.4 41.579 169.049 41.579 169.049 33.171 163.951 33.171 163.951 14.336 156.4 14.336 156.4 41.579"/></clipPath><clipPath id="e" transform="translate(-0.58904 -4.47109)"><polygon class="a" points="135.944 14.336 135.944 23.925 132.099 23.925 132.099 14.336 124.292 14.336 124.292 41.579 132.099 41.579 132.099 30.791 135.944 30.791 135.944 41.579 143.751 41.579 143.751 14.336 135.944 14.336"/></clipPath><clipPath id="f" transform="translate(-0.58904 -4.47109)"><path class="b" d="M184.489,57.09109v7.08a23.99231,23.99231,0,0,1-5.08.54,9.23415,9.23415,0,0,1-3.95-.72,4.5369,4.5369,0,0,1-2.22-2.24,9.53361,9.53361,0,0,1-.71-4,9.30321,9.30321,0,0,1,.73-4,4.60932,4.60932,0,0,1,2.27-2.24,9.6143,9.6143,0,0,1,4.04-.72,12.90022,12.90022,0,0,1,4.5.72l-1.18,1.8a8.32175,8.32175,0,0,0-2.9-.48,5.0831,5.0831,0,0,0-3.72,1.15,5.21491,5.21491,0,0,0-1.14,3.77,5.4084,5.4084,0,0,0,1.08,3.77,4.64732,4.64732,0,0,0,3.52,1.15,14.24046,14.24046,0,0,0,2.3-.22v-3.5h-2.78l1.2-1.86Zm-17.2,4.38a5.85357,5.85357,0,0,0,.94-3.72,5.85352,5.85352,0,0,0-.94-3.72,4.73072,4.73072,0,0,0-6.16,0,5.85365,5.85365,0,0,0-.94,3.72,5.85371,5.85371,0,0,0,.94,3.72,4.73072,4.73072,0,0,0,6.16,0Zm-6.95,2.52a4.47486,4.47486,0,0,1-2.16-2.24,9.77651,9.77651,0,0,1-.69-4,9.77653,9.77653,0,0,1,.69-4,4.47476,4.47476,0,0,1,2.16-2.24,10.76051,10.76051,0,0,1,7.74,0,4.469,4.469,0,0,1,2.16,2.25,9.84925,9.84925,0,0,1,.69,4.01,9.77618,9.77618,0,0,1-.69,4,4.4286,4.4286,0,0,1-2.16,2.23,8.95779,8.95779,0,0,1-3.87.71A8.84936,8.84936,0,0,1,160.339,63.99109Zm-3.63-1.56v2.04h-8.8v-13.44h2.66v11.4Zm-14.07-.36a2.5201,2.5201,0,0,0,0-3.04,2.49979,2.49979,0,0,0-1.69-.46h-3.58v3.96h3.58A2.49985,2.49985,0,0,0,142.639,62.07109Zm-.4-8.66a2.38453,2.38453,0,0,0-1.61-.44h-3.26v3.72h3.26a2.38442,2.38442,0,0,0,1.61-.44,2.30251,2.30251,0,0,0,0-2.84Zm3.02,5.22a3.81451,3.81451,0,0,1,.51,2.08,3.64383,3.64383,0,0,1-1.01,2.87,4.92909,4.92909,0,0,1-3.29.89h-6.7v-13.44h6.38a4.69885,4.69885,0,0,1,3.16.87,3.58346,3.58346,0,0,1,.98,2.81,2.75843,2.75843,0,0,1-1.58,2.78A2.78551,2.78551,0,0,1,145.259,58.63108Z"/></clipPath></defs><title>WH-logo</title><g class="c"><rect class="d" width="190" height="46.97297"/></g><g class="e"><rect class="f" x="141.0811" y="4.86487" width="17.78378" height="37.24324"/></g><g class="g"><rect class="f" x="167.35139" y="4.86487" width="22.64865" height="37.24324"/></g><g class="h"><rect class="f" x="150.81081" y="4.86487" width="22.64865" height="37.24324"/></g><g class="i"><rect class="f" x="118.7027" y="4.86487" width="29.45946" height="37.24324"/></g><g class="j"><rect class="d" x="129.18" y="41.32" width="59.71999" height="23.92"/></g></svg>